<svg width="12" height="10" viewBox="0 0 12 10" fill="none" xmlns="http://www.w3.org/2000/svg">
<path d="M5.4512 9.11771C5.45116 9.11775 5.45113 9.11778 5.45109 9.11782C5.41985 9.149 5.37751 9.16651 5.33336 9.16651C5.28919 9.16651 5.24683 9.14898 5.21558 9.11777C5.21557 9.11775 5.21555 9.11773 5.21553 9.11771L1.21564 5.11782L5.99989 8.99999C5.99989 9.17676 5.92968 9.3463 5.8047 9.47132L5.4512 9.11771ZM5.4512 9.11771C5.48238 9.08647 5.49989 9.04413 5.49989 8.99999C5.49989 8.95582 5.48236 8.91346 5.45114 8.88221L5.4512 9.11771ZM2.58914 6.02021L5.45109 8.88215L1.21558 5.11777C1.18437 5.08652 1.16684 5.04415 1.16684 4.99999C1.16684 4.95582 1.18437 4.91346 1.21558 4.88221C1.2156 4.88219 1.21562 4.88217 1.21564 4.88215L5.21149 0.886301C5.24268 0.857202 5.28389 0.841146 5.32662 0.841517C5.37032 0.841897 5.41212 0.859425 5.44302 0.890326C5.47392 0.921228 5.49145 0.96303 5.49183 1.00673C5.4922 1.04946 5.47615 1.09066 5.44705 1.12186L2.58914 3.97977L1.73559 4.83332H2.9427H10.6667C10.7109 4.83332 10.7533 4.85088 10.7845 4.88213C10.8158 4.91339 10.8334 4.95578 10.8334 4.99999C10.8334 5.04419 10.8158 5.08658 10.7845 5.11784C10.7533 5.14909 10.7109 5.16665 10.6667 5.16665H2.9427H1.73559L2.58914 6.02021Z" fill="#4094F7" stroke="#4094F7"/>
</svg>
